<mxfile host="www.draw.io" modified="2020-03-20T03:28:06.476Z" agent="Mozilla/5.0 (Macintosh; Intel Mac OS X 10_13_6) AppleWebKit/537.36 (KHTML, like Gecko) Chrome/80.0.3987.132 Safari/537.36" etag="5nCuMUyDNIBP_29wCWwR" version="12.8.8" type="github">
  <diagram id="YjKeF_FXg8-f9JpqsyVf" name="Page-1">
    <mxGraphModel dx="893" dy="498" grid="1" gridSize="10" guides="1" tooltips="1" connect="1" arrows="1" fold="1" page="1" pageScale="1" pageWidth="827" pageHeight="1169" math="0" shadow="0">
      <root>
        <mxCell id="0" />
        <mxCell id="1" parent="0" />
        <mxCell id="T7OsTbxaAlnbgz34bx-q-1" value="PAD类别 IPad&lt;br&gt;CBOH_IPAD_3CH" style="rounded=1;whiteSpace=wrap;html=1;" vertex="1" parent="1">
          <mxGeometry x="637" y="410" width="146" height="60" as="geometry" />
        </mxCell>
        <mxCell id="T7OsTbxaAlnbgz34bx-q-2" value="菜谱明细之适用门店 ItemprgFirm&lt;br&gt;CBOH_ITEMPRGFIRM_3CH" style="rounded=1;whiteSpace=wrap;html=1;" vertex="1" parent="1">
          <mxGeometry x="40" y="300" width="210" height="60" as="geometry" />
        </mxCell>
        <mxCell id="T7OsTbxaAlnbgz34bx-q-3" value="菜谱明细之PAD类别 ItemprgPad&lt;br&gt;CBOH_ITEMPRGPAD_3CH" style="rounded=1;whiteSpace=wrap;html=1;" vertex="1" parent="1">
          <mxGeometry x="610" y="300" width="190" height="60" as="geometry" />
        </mxCell>
        <mxCell id="T7OsTbxaAlnbgz34bx-q-4" value="菜品 Pubitem&lt;br&gt;CBOH_PUBITEM_3CH" style="rounded=1;whiteSpace=wrap;html=1;" vertex="1" parent="1">
          <mxGeometry x="67" y="40" width="156" height="60" as="geometry" />
        </mxCell>
        <mxCell id="T7OsTbxaAlnbgz34bx-q-6" value="菜谱方案 ItemPrgm&lt;br&gt;CBOH_ITEMPRGM_3CH" style="rounded=1;whiteSpace=wrap;html=1;" vertex="1" parent="1">
          <mxGeometry x="350" y="230" width="170" height="60" as="geometry" />
        </mxCell>
        <mxCell id="T7OsTbxaAlnbgz34bx-q-12" value="" style="endArrow=open;html=1;endSize=12;startArrow=diamondThin;startSize=14;startFill=0;edgeStyle=orthogonalEdgeStyle;align=left;verticalAlign=bottom;exitX=1;exitY=0.5;exitDx=0;exitDy=0;entryX=0.25;entryY=0;entryDx=0;entryDy=0;" edge="1" parent="1" source="T7OsTbxaAlnbgz34bx-q-16" target="T7OsTbxaAlnbgz34bx-q-6">
          <mxGeometry x="0.0722" y="40" relative="1" as="geometry">
            <mxPoint x="331" y="220" as="sourcePoint" />
            <mxPoint x="360" y="190" as="targetPoint" />
            <Array as="points" />
            <mxPoint x="40" y="40" as="offset" />
          </mxGeometry>
        </mxCell>
        <mxCell id="T7OsTbxaAlnbgz34bx-q-15" value="菜谱明细之套餐 ItemprgPackage&lt;br&gt;CBOH_ITEMPRGPACKAGE_3CH" style="rounded=1;whiteSpace=wrap;html=1;" vertex="1" parent="1">
          <mxGeometry x="610" y="160" width="197.5" height="55" as="geometry" />
        </mxCell>
        <mxCell id="T7OsTbxaAlnbgz34bx-q-16" value="菜谱明细之菜品 Itemprgd&lt;br&gt;CBOH_PUBITEMTEAMDETAIL_3CH" style="rounded=1;whiteSpace=wrap;html=1;" vertex="1" parent="1">
          <mxGeometry x="40" y="160" width="210" height="60" as="geometry" />
        </mxCell>
        <mxCell id="T7OsTbxaAlnbgz34bx-q-26" value="" style="endArrow=none;html=1;" edge="1" parent="1" source="T7OsTbxaAlnbgz34bx-q-49">
          <mxGeometry width="50" height="50" relative="1" as="geometry">
            <mxPoint x="823" y="260" as="sourcePoint" />
            <mxPoint x="709" y="160" as="targetPoint" />
          </mxGeometry>
        </mxCell>
        <mxCell id="T7OsTbxaAlnbgz34bx-q-48" value="" style="endArrow=none;html=1;" edge="1" parent="1">
          <mxGeometry width="50" height="50" relative="1" as="geometry">
            <mxPoint x="145" y="100" as="sourcePoint" />
            <mxPoint x="145" y="160" as="targetPoint" />
          </mxGeometry>
        </mxCell>
        <mxCell id="T7OsTbxaAlnbgz34bx-q-49" value="套餐 PubPack&lt;br&gt;CBOH_PUBPACK_3CH" style="rounded=1;whiteSpace=wrap;html=1;" vertex="1" parent="1">
          <mxGeometry x="612.5" y="40" width="195" height="60" as="geometry" />
        </mxCell>
        <mxCell id="T7OsTbxaAlnbgz34bx-q-50" value="" style="endArrow=open;html=1;endSize=12;startArrow=diamondThin;startSize=14;startFill=0;edgeStyle=orthogonalEdgeStyle;align=left;verticalAlign=bottom;exitX=1;exitY=0.5;exitDx=0;exitDy=0;entryX=0.25;entryY=1;entryDx=0;entryDy=0;" edge="1" parent="1" source="T7OsTbxaAlnbgz34bx-q-2" target="T7OsTbxaAlnbgz34bx-q-6">
          <mxGeometry x="0.0722" y="40" relative="1" as="geometry">
            <mxPoint x="260" y="200" as="sourcePoint" />
            <mxPoint x="400" y="340" as="targetPoint" />
            <Array as="points">
              <mxPoint x="393" y="330" />
            </Array>
            <mxPoint x="40" y="40" as="offset" />
          </mxGeometry>
        </mxCell>
        <mxCell id="T7OsTbxaAlnbgz34bx-q-51" value="" style="endArrow=open;html=1;endSize=12;startArrow=diamondThin;startSize=14;startFill=0;edgeStyle=orthogonalEdgeStyle;align=left;verticalAlign=bottom;exitX=0;exitY=0.5;exitDx=0;exitDy=0;" edge="1" parent="1" source="T7OsTbxaAlnbgz34bx-q-15" target="T7OsTbxaAlnbgz34bx-q-6">
          <mxGeometry x="0.0722" y="40" relative="1" as="geometry">
            <mxPoint x="485.96" y="175" as="sourcePoint" />
            <mxPoint x="505.92" y="215" as="targetPoint" />
            <Array as="points">
              <mxPoint x="490" y="188" />
            </Array>
            <mxPoint x="40" y="40" as="offset" />
          </mxGeometry>
        </mxCell>
        <mxCell id="T7OsTbxaAlnbgz34bx-q-52" value="" style="endArrow=open;html=1;endSize=12;startArrow=diamondThin;startSize=14;startFill=0;edgeStyle=orthogonalEdgeStyle;align=left;verticalAlign=bottom;exitX=0;exitY=0.5;exitDx=0;exitDy=0;" edge="1" parent="1">
          <mxGeometry x="0.0722" y="40" relative="1" as="geometry">
            <mxPoint x="610" y="330" as="sourcePoint" />
            <mxPoint x="488" y="293" as="targetPoint" />
            <Array as="points">
              <mxPoint x="488" y="330" />
            </Array>
            <mxPoint x="40" y="40" as="offset" />
          </mxGeometry>
        </mxCell>
        <mxCell id="T7OsTbxaAlnbgz34bx-q-53" value="" style="endArrow=none;html=1;" edge="1" parent="1">
          <mxGeometry width="50" height="50" relative="1" as="geometry">
            <mxPoint x="710.2666666666665" y="360" as="sourcePoint" />
            <mxPoint x="710" y="410" as="targetPoint" />
          </mxGeometry>
        </mxCell>
        <mxCell id="T7OsTbxaAlnbgz34bx-q-54" value="门店 Store&lt;br&gt;CBOH_STORE_3CH" style="rounded=1;whiteSpace=wrap;html=1;" vertex="1" parent="1">
          <mxGeometry x="77" y="410" width="146" height="60" as="geometry" />
        </mxCell>
        <mxCell id="T7OsTbxaAlnbgz34bx-q-55" value="" style="endArrow=none;html=1;" edge="1" parent="1">
          <mxGeometry width="50" height="50" relative="1" as="geometry">
            <mxPoint x="144.76666666666642" y="360" as="sourcePoint" />
            <mxPoint x="144.5" y="410" as="targetPoint" />
          </mxGeometry>
        </mxCell>
      </root>
    </mxGraphModel>
  </diagram>
</mxfile>
